G04 DesignSpark PCB Gerber Version 10.0 Build 5299*
%FSLAX35Y35*%
%MOIN*%
%ADD82C,0.02953*%
%ADD76C,0.03000*%
%ADD77C,0.03200*%
%ADD75C,0.03701*%
%ADD80C,0.04000*%
%ADD78C,0.04370*%
%ADD88C,0.07874*%
X0Y0D02*
D02*
D75*
X527750Y260250D03*
Y290250D03*
Y320250D03*
X535250Y252750D03*
Y282750D03*
Y312750D03*
X542750Y260250D03*
Y290250D03*
Y320250D03*
D02*
D76*
X65250Y330250D03*
Y340250D03*
X95250Y330250D03*
Y340250D03*
X195250Y330250D03*
Y340250D03*
X225250Y330250D03*
Y340250D03*
X325250Y330250D03*
Y340250D03*
X355250Y330250D03*
Y340250D03*
D02*
D77*
X65250Y270250D03*
Y310250D03*
X95250Y270250D03*
Y310250D03*
X195250Y270250D03*
Y310250D03*
X225250Y270250D03*
Y310250D03*
X325250Y270250D03*
Y310250D03*
X350250Y125250D03*
Y165250D03*
X355250Y270250D03*
Y310250D03*
X375250Y125250D03*
X415250Y60250D03*
Y100250D03*
Y125250D03*
X480250Y60250D03*
Y100250D03*
X490250Y240250D03*
Y270250D03*
Y300250D03*
X510250Y185250D03*
Y225250D03*
X530250Y240250D03*
Y270250D03*
Y300250D03*
D02*
D78*
X265250Y105250D03*
Y115250D03*
Y125250D03*
Y135250D03*
Y145250D03*
Y155250D03*
Y165250D03*
Y175250D03*
D02*
D80*
X395250Y165250D03*
Y175250D03*
Y185250D03*
Y195250D03*
Y205250D03*
Y215250D03*
Y225250D03*
Y235250D03*
Y245250D03*
Y255250D03*
Y265250D03*
Y275250D03*
Y285250D03*
Y295250D03*
Y305250D03*
X455250Y165250D03*
Y175250D03*
Y185250D03*
Y195250D03*
Y205250D03*
Y215250D03*
Y225250D03*
Y235250D03*
Y245250D03*
Y255250D03*
Y265250D03*
Y275250D03*
Y285250D03*
Y295250D03*
Y305250D03*
D02*
D82*
X395250Y90939D03*
Y102750D03*
X460250Y90939D03*
Y102750D03*
Y130250D03*
X472061D03*
D02*
D88*
X25250Y25250D03*
Y365250D03*
X580250Y25250D03*
Y365250D03*
X0Y0D02*
M02*
