G04 DesignSpark PCB Gerber Version 10.0 Build 5299*
%FSLAX35Y35*%
%MOIN*%
%ADD86R,0.07000X0.07000*%
%ADD11C,0.00500*%
%ADD15C,0.02500*%
%ADD84C,0.07000*%
%ADD16C,0.07500*%
%ADD87C,0.11811*%
%ADD85R,0.08000X0.07000*%
X0Y0D02*
D02*
D11*
X250Y250D02*
X605250D01*
Y390250D01*
X250D01*
Y250D01*
D02*
D15*
X65250Y270250D02*
Y220250D01*
X70250Y215250D01*
X395250D01*
X65250Y310250D02*
Y330250D01*
X95250Y310250D02*
Y330250D01*
X195250Y310250D02*
Y330250D01*
X225250Y310250D02*
Y330250D01*
X265250Y135250D02*
X259366D01*
X255250Y139366D01*
Y180250D01*
X260250Y185250D01*
X395250D01*
X265250Y145250D02*
X405250D01*
X410250Y150250D01*
Y191134D01*
X406134Y195250D01*
X395250D01*
X265250Y155250D02*
X390250D01*
X395250Y160250D01*
Y165250D01*
X325250Y270250D02*
Y260250D01*
X330250Y255250D01*
X395250D01*
X325250Y310250D02*
Y330250D01*
X350250Y125250D02*
X375250D01*
X350250Y165250D02*
X265250D01*
X355250Y270250D02*
X360250Y265250D01*
X395250D01*
X355250Y310250D02*
Y330250D01*
X395250Y90939D02*
X400939D01*
X410250Y100250D01*
X415250D01*
X395250Y175250D02*
X265250D01*
X395250Y225250D02*
X100250D01*
X95250Y230250D01*
Y270250D01*
X395250Y235250D02*
X200250D01*
X195250Y240250D01*
Y270250D01*
X395250Y245250D02*
X230250D01*
X225250Y250250D01*
Y270250D01*
X415250Y125250D02*
X420250D01*
X435250Y140250D01*
Y160250D01*
X440250Y165250D01*
X455250D01*
Y205250D02*
X500250D01*
X510250Y195250D01*
Y185250D01*
X455250Y215250D02*
X425250D01*
X420250Y210250D01*
Y145250D01*
X410250Y135250D01*
X390250D01*
X385250Y130250D01*
Y95250D01*
X389561Y90939D01*
X395250D01*
X455250Y245250D02*
X475250D01*
X455250Y255250D02*
X470250D01*
X455250Y265250D02*
X465250D01*
X460250Y90939D02*
X490939D01*
X510250Y110250D01*
Y185250D01*
X465250Y265250D02*
X475250D01*
X480250Y270250D01*
Y285250D01*
X490250Y295250D01*
Y300250D01*
X470250Y255250D02*
X485250D01*
X490250Y260250D01*
Y270250D01*
X472061Y130250D02*
X490250D01*
X500250Y140250D01*
Y185250D01*
X490250Y195250D01*
X455250D01*
X472061Y130250D02*
Y103439D01*
X475250Y100250D01*
X480250D01*
X475250Y245250D02*
X485250D01*
X490250Y240250D01*
X530250D02*
X535250Y245250D01*
Y252750D01*
X530250Y270250D02*
X535250Y275250D01*
Y282750D01*
X530250Y300250D02*
X535250Y305250D01*
Y312750D01*
D02*
D16*
X65250Y340250D02*
X55250D01*
X50250Y335250D01*
Y215250D01*
X65250Y200250D01*
X230250D01*
X240250Y190250D01*
Y115250D01*
X250250Y105250D01*
X265250D01*
X65250Y340250D02*
X95250D01*
X195250D01*
X225250D01*
X325250D01*
X265250Y125250D02*
X335250D01*
X385250Y75250D01*
X435250D01*
X325250Y340250D02*
X355250D01*
X365250D01*
X370250Y335250D01*
Y280250D01*
X375250Y275250D01*
X395250D01*
Y102750D02*
Y110250D01*
X400250Y115250D01*
X425250D01*
X435250Y105250D01*
X395250Y275250D02*
X410250D01*
X430250Y295250D01*
X455250D01*
X415250Y60250D02*
X370250D01*
X325250Y105250D01*
X265250D01*
X415250Y60250D02*
X480250D01*
X435250Y75250D02*
X440250D01*
X435250Y90250D02*
Y75250D01*
Y105250D02*
Y90250D01*
X440250Y75250D02*
X515250D01*
X555250Y115250D01*
Y260250D01*
X447750Y102750D02*
X437750D01*
X435250Y105250D01*
X455250Y175250D02*
X465250D01*
X470250Y170250D01*
Y150250D01*
X460250Y140250D01*
Y130250D01*
X455250Y215250D02*
X500250D01*
X510250Y225250D01*
X460250Y102750D02*
X447750D01*
X460250Y130250D02*
Y102750D01*
X510250Y225250D02*
Y260250D01*
X527750D01*
X510250Y290250D02*
Y320250D01*
Y290250D02*
Y260250D01*
Y320250D02*
X495250D01*
X470250Y295250D01*
X455250D01*
X510250Y320250D02*
X527750D01*
Y290250D02*
X510250D01*
X542750Y260250D02*
X555250D01*
X542750Y290250D02*
X555250D01*
X542750Y320250D02*
X550250D01*
X555250Y315250D01*
Y290250D01*
Y260250D01*
D02*
D84*
X65250Y270250D03*
Y310250D03*
X95250Y270250D03*
Y310250D03*
X195250Y270250D03*
Y310250D03*
X225250Y270250D03*
Y310250D03*
X265250Y105250D03*
Y115250D03*
Y125250D03*
Y135250D03*
Y145250D03*
Y155250D03*
Y165250D03*
X325250Y270250D03*
Y310250D03*
X350250Y125250D03*
Y165250D03*
X355250Y270250D03*
Y310250D03*
X375250Y125250D03*
X395250Y90939D03*
Y102750D03*
Y165250D03*
Y175250D03*
Y185250D03*
Y195250D03*
Y205250D03*
Y215250D03*
Y225250D03*
Y235250D03*
Y245250D03*
Y255250D03*
Y265250D03*
Y275250D03*
Y285250D03*
Y295250D03*
Y305250D03*
X415250Y60250D03*
Y100250D03*
Y125250D03*
X455250Y175250D03*
Y185250D03*
Y195250D03*
Y205250D03*
Y215250D03*
Y225250D03*
Y235250D03*
Y245250D03*
Y255250D03*
Y265250D03*
Y275250D03*
Y285250D03*
Y295250D03*
Y305250D03*
X460250Y90939D03*
Y102750D03*
Y130250D03*
X472061D03*
X480250Y60250D03*
Y100250D03*
X490250Y240250D03*
Y270250D03*
Y300250D03*
X510250Y185250D03*
Y225250D03*
X527750Y260250D03*
Y290250D03*
Y320250D03*
X530250Y240250D03*
Y270250D03*
Y300250D03*
X535250Y252750D03*
Y282750D03*
Y312750D03*
X542750Y260250D03*
Y290250D03*
Y320250D03*
D02*
D85*
X65250Y330250D03*
Y340250D03*
X95250Y330250D03*
Y340250D03*
X195250Y330250D03*
Y340250D03*
X225250Y330250D03*
Y340250D03*
X325250Y330250D03*
Y340250D03*
X355250Y330250D03*
Y340250D03*
D02*
D86*
X265250Y175250D03*
X455250Y165250D03*
D02*
D87*
X25250Y25250D03*
Y365250D03*
X580250Y25250D03*
Y365250D03*
X0Y0D02*
M02*
